Coordinates
version=1
nRows=7
nColumns=33
inDegrees=yes

Units are S.I. units (second, meters, Newtons, ...)
If the header above contains a line with 'inDegrees', this indicates whether rotational values are in degrees (yes) or radians (no).

endheader
time	pelvis_tilt	pelvis_list	pelvis_rotation	pelvis_tx	pelvis_ty	pelvis_tz	hip_flexion_r	hip_adduction_r	hip_rotation_r	knee_angle_r	knee_angle_r_beta	ankle_angle_r	subtalar_angle_r	mtp_angle_r	hip_flexion_l	hip_adduction_l	hip_rotation_l	knee_angle_l	knee_angle_l_beta	lumbar_extension	lumbar_bending	lumbar_rotation	arm_flex_r	arm_add_r	arm_rot_r	elbow_flex_r	pro_sup_r	arm_flex_l	arm_add_l	arm_rot_l	elbow_flex_l	pro_sup_l
      0.42916670	    -37.99705497	     -0.57680687	     -7.94860697	     -3.18898927	      0.92885552	     -0.69855043	     90.27741208	     -0.93953163	     -9.27238942	     72.88872600	      1.27214826	     -4.31600118	    -15.34185841	     -7.49999970	     11.69662494	     -6.85059425	     -9.60369224	     12.90212465	      0.22518456	    -11.43525996	      8.19930241	      6.10910830	    -69.99444791	    -23.57754240	    -34.54023843	     34.29806602	     74.58731646	     77.60067268	    -21.72104980	    377.94635160	    117.14038370	    101.00214267
      0.43333330	    -38.22119276	     -0.54848879	     -7.71925215	     -3.17242639	      0.92964161	     -0.69780972	     89.69461049	     -1.58422470	     -9.59446819	     72.29273456	      1.26174624	     -3.68831104	    -14.77389028	     -7.49999971	     11.27791486	     -6.53306039	     -9.05574762	     12.71379707	      0.22189762	    -10.98339395	      8.63369559	      6.86733461	    -68.88250411	    -24.76751935	    -26.66889271	     33.44445953	     73.19749634	     74.71989058	    -22.02172373	    377.84938152	    119.94621608	    100.91073783
      0.43750000	    -38.37707735	     -0.65287748	     -7.61712136	     -3.15586344	      0.92948796	     -0.69704082	     88.95345241	     -2.09852202	     -9.99801200	     71.77837234	      1.25276893	     -3.04813876	    -14.30108476	     -7.49999974	     10.86169459	     -6.39407489	     -8.68981977	     12.75865582	      0.22268055	    -10.64993050	      9.13507100	      7.63380962	    -68.05262262	    -26.93471507	    -15.55946703	     34.79922866	     59.53215619	     71.61054783	    -22.33736619	    377.79894184	    122.96721022	    100.62821596
      0.44166670	    -38.61103719	     -0.76612856	     -7.53321242	     -3.13935078	      0.92865099	     -0.69609843	     88.11193416	     -2.56206109	    -10.39204390	     71.12418694	      1.24135124	     -2.51805296	    -13.80237684	     -7.49999976	     10.67373047	     -6.32894133	     -8.47811245	     13.07250485	      0.22815825	    -10.11848176	      9.58187230	      8.57508632	    -67.46578102	    -28.42646004	     -8.10861191	     34.42905203	     54.45874810	     68.44963802	    -22.28624474	    378.08298900	    125.62675605	    100.60140193
      0.44583330	    -38.84426052	     -1.08491660	     -7.38830239	     -3.12303849	      0.93137504	     -0.69497021	     86.87149974	     -2.91542797	    -10.89749377	     70.06636494	      1.22288876	     -2.11941438	    -13.43721851	     -7.49999976	     10.71633708	     -6.52865108	     -8.33752098	     13.55394731	      0.23656101	     -9.70375358	     10.28532797	      9.41971116	    -66.12248724	    -29.35259034	     -4.20631620	     34.66261799	     54.71147546	     64.75881104	    -22.35461293	    378.54153089	    128.15972158	    100.62564452
      0.45000000	    -38.89753572	     -1.22497930	     -7.29354154	     -3.10703760	      0.93199579	     -0.69386426	     85.56335556	     -3.22097032	    -11.13278103	     69.19579375	      1.20769443	     -1.86224923	    -13.24933555	     -7.49999977	     10.76975876	     -6.54693082	     -8.22376328	     14.42971690	      0.25184607	     -9.34721425	     10.66424771	      9.93855667	    -64.34186165	    -30.52203020	     -0.36916888	     34.57679762	     53.92671829	     61.01632241	    -22.68434877	    379.44663851	    130.42467674	    100.58787459
      0.45416670	    -38.62216605	     -1.38489753	     -7.17369706	     -3.09149033	      0.93322813	     -0.69252313	     83.84433630	     -3.45225312	    -11.22813412	     68.23167730	      1.19086742	     -1.62719094	    -13.34890409	     -7.49999977	     10.76470065	     -6.62433783	     -8.26723112	     15.70314921	      0.27407166	     -9.50107213	     11.06225581	     10.22370969	    -62.18533559	    -30.93704788	     -0.27236831	     34.92507545	     53.85837096	     56.99901533	    -23.51962451	    380.52560248	    132.63515477	    100.55897693
